<svg width="40" height="46" viewBox="0 0 40 46" fill="none" xmlns="http://www.w3.org/2000/svg">
<g clip-path="url(#clip0_281_244)">
<path d="M40 34.1875V8.3125C40 5.93074 38.0804 4 35.7143 4H8.57143C3.8375 4 0 7.86148 0 12.625V41.375C0 46.1385 3.8375 50 8.57143 50H37.1429C38.7205 50 40 48.7125 40 47.2059C40 46.1529 39.4101 45.2724 38.5714 44.7711V37.4614C39.4464 36.5953 40 35.4633 40 34.1875ZM12.7768 15.5H29.9196C30.7857 15.5 31.4286 16.1469 31.4286 16.9375C31.4286 17.7281 30.7857 18.375 30 18.375H12.7768C12.0714 18.375 11.4286 17.7281 11.4286 16.9375C11.4286 16.1469 12.0714 15.5 12.7768 15.5ZM12.7768 21.25H29.9196C30.7857 21.25 31.4286 21.8969 31.4286 22.6875C31.4286 23.4781 30.7857 24.125 30 24.125H12.7768C12.0714 24.125 11.4286 23.4781 11.4286 22.6875C11.4286 21.8969 12.0714 21.25 12.7768 21.25ZM34.2857 44.25H8.57143C6.99375 44.25 5.71429 42.9625 5.71429 41.375C5.71429 39.7875 6.99375 38.5 8.57143 38.5H34.2857V44.25Z" fill="#C87073"/>
</g>
<defs>
<clipPath id="clip0_281_244">
<rect width="40" height="46" fill="white"/>
</clipPath>
</defs>
</svg>
