<svg width="40" height="46" viewBox="0 0 40 46" fill="none" xmlns="http://www.w3.org/2000/svg">
<g clip-path="url(#clip0_281_246)">
<path d="M20 10C8.95536 10 0 19.0113 0 30.125C0 38.4104 4.97946 45.5242 12.0893 48.6059C11.7786 46.7416 11.5384 44.8693 11.4645 43.3814C7.15 40.5559 4.28571 35.6773 4.28571 30.125C4.28571 21.4057 11.3348 14.3125 20 14.3125C28.6652 14.3125 35.7143 21.4057 35.7143 30.125C35.7143 35.6764 32.85 40.5559 28.5366 43.3859C28.4621 44.8684 28.2204 46.7434 27.9085 48.6121C35.0179 45.5242 40 38.4086 40 30.125C40 19.0113 31.0446 10 20 10ZM20 38.0312C17.0643 38.0312 14.2857 38.8062 14.2857 41.9619C14.2857 44.9384 15.4357 51.3326 16.1268 53.8932C16.5893 55.6047 18.3125 56 20 56C21.6875 56 23.4152 55.6069 23.8732 53.8995C24.5625 51.3191 25.7143 44.9312 25.7143 41.9664C25.7143 38.8039 22.9375 38.0312 20 38.0312ZM20 35.1562C22.7634 35.1562 25 32.9057 25 30.125C25 27.3443 22.6875 25.0938 20 25.0938C17.3125 25.0938 15 27.3398 15 30.125C15 32.9102 17.2321 35.1562 20 35.1562ZM32.8571 30.125C32.8571 22.9797 27.1009 17.1875 20 17.1875C12.8991 17.1875 7.14286 22.9824 7.14286 30.125C7.14286 34.1527 9.01071 37.706 11.8786 40.0797C12.3122 38.9432 13.1402 37.7545 14.7402 36.9316C14.7411 36.9262 14.7679 36.9262 14.7857 36.9262C12.7589 35.3449 11.4286 32.9012 11.4286 30.125C11.4286 25.3615 15.2661 21.5 20 21.5C24.7339 21.5 28.5714 25.3615 28.5714 30.125C28.5714 32.903 27.2437 35.3476 25.217 36.9244C25.2287 36.9267 25.2623 36.9288 25.2593 36.931C26.8602 37.754 27.687 38.9417 28.1209 40.0792C30.9911 37.7078 32.8571 34.15 32.8571 30.125Z" fill="#C87073"/>
</g>
<defs>
<clipPath id="clip0_281_246">
<rect width="40" height="46" fill="white"/>
</clipPath>
</defs>
</svg>
